# xmcd CD database file
#
# Track frame offsets:
#	150
#	41401
#	81666
#	102310
#	149148
#	175743
#	200997
#
# Disc length: 2947 seconds
#
# Revision: 1
# Processed by: cddbd v1.5.1PL2 Copyright (c) Steve Scherf et al.
# Submitted via: CDex 1.51
#
DISCID=6b0b8107
DTITLE=Hiroko Takada Quartet - a song for someone
DYEAR=1900
DGENRE=Jazz
TTITLE0=Sea Breeze
TTITLE1=Dark Sea - Just Before Dawn
TTITLE2=Waltz
TTITLE3=Sultan Yegah
TTITLE4=Ikiz
TTITLE5=Three Triangles
TTITLE6=Ballade - A Song For Someone
EXTD=
EXTT0=
EXTT1=
EXTT2=
EXTT3=
EXTT4=
EXTT5=
EXTT6=
PLAYORDER=
